<svg xmlns="http://www.w3.org/2000/svg" viewBox="0 0 640 360" role="img" aria-label="Diagram of a desktop PC running local AI models">
  <rect width="640" height="360" fill="#0a192f"/>
  <circle cx="110" cy="300" r="160" fill="#112240" opacity="0.55"/>
  <rect x="120" y="88" width="120" height="196" rx="12" fill="#112240" stroke="#233554"/>
  <rect x="138" y="110" width="84" height="10" rx="5" fill="#233554"/>
  <rect x="138" y="128" width="84" height="10" rx="5" fill="#233554"/>
  <rect x="138" y="150" width="84" height="52" rx="8" fill="#0a192f" stroke="#233554"/>
  <text x="180" y="182" font-family="Consolas,Menlo,monospace" font-size="15" fill="#64ffda" text-anchor="middle">GPU</text>
  <circle cx="150" cy="258" r="5" fill="#efa63f"/>
  <text x="166" y="263" font-family="Consolas,Menlo,monospace" font-size="12" fill="#8892b0">on</text>
  <path d="M240 186 H272" stroke="#233554" stroke-width="2"/>
  <g font-family="Consolas,Menlo,monospace" font-size="15">
    <rect x="300" y="96" width="220" height="44" rx="10" fill="#112240" stroke="#233554"/>
    <text x="322" y="123" fill="#ccd6f6">ollama <tspan fill="#8892b0">serve</tspan></text>
    <rect x="300" y="158" width="220" height="44" rx="10" fill="#112240" stroke="#64ffda"/>
    <text x="322" y="185" fill="#64ffda">hermes <tspan fill="#8892b0">· local</tspan></text>
    <rect x="300" y="220" width="220" height="44" rx="10" fill="#112240" stroke="#233554"/>
    <text x="322" y="247" fill="#ccd6f6">open-weights <tspan fill="#8892b0">…</tspan></text>
  </g>
  <path d="M300 118 H272 V242 H300 M300 180 H272" stroke="#233554" stroke-width="2" fill="none"/>
  <text x="120" y="322" font-family="Consolas,Menlo,monospace" font-size="14" fill="#8892b0">no API in the middle</text>
</svg>
